<svg width="186" height="61" viewBox="0 0 186 61" fill="none" xmlns="http://www.w3.org/2000/svg">
<rect width="186" height="61" rx="12" fill="#FF7757"/>
<path d="M25.328 37C25.016 37 24.8 36.844 24.68 36.532L20.63 24.958L20.594 24.76C20.594 24.664 20.63 24.58 20.702 24.508C20.786 24.436 20.876 24.4 20.972 24.4H21.836C21.968 24.4 22.07 24.436 22.142 24.508C22.226 24.568 22.28 24.64 22.304 24.724L25.868 35.02L29.45 24.724C29.474 24.64 29.522 24.568 29.594 24.508C29.678 24.436 29.786 24.4 29.918 24.4H30.782C30.878 24.4 30.962 24.436 31.034 24.508C31.106 24.58 31.142 24.664 31.142 24.76C31.142 24.844 31.136 24.91 31.124 24.958L27.074 36.532C26.954 36.844 26.738 37 26.426 37H25.328ZM33.3798 25.876C33.2598 25.876 33.1578 25.84 33.0738 25.768C33.0018 25.684 32.9658 25.582 32.9658 25.462V24.526C32.9658 24.406 33.0018 24.304 33.0738 24.22C33.1578 24.136 33.2598 24.094 33.3798 24.094H34.4418C34.5618 24.094 34.6638 24.136 34.7478 24.22C34.8318 24.304 34.8738 24.406 34.8738 24.526V25.462C34.8738 25.582 34.8318 25.684 34.7478 25.768C34.6638 25.84 34.5618 25.876 34.4418 25.876H33.3798ZM33.5238 37C33.4038 37 33.3018 36.964 33.2178 36.892C33.1458 36.808 33.1098 36.706 33.1098 36.586V28.054C33.1098 27.934 33.1458 27.838 33.2178 27.766C33.3018 27.682 33.4038 27.64 33.5238 27.64H34.3158C34.4358 27.64 34.5318 27.682 34.6038 27.766C34.6878 27.838 34.7298 27.934 34.7298 28.054V36.586C34.7298 36.706 34.6878 36.808 34.6038 36.892C34.5318 36.964 34.4358 37 34.3158 37H33.5238ZM41.142 37.18C39.918 37.18 38.94 36.802 38.208 36.046C37.476 35.278 37.074 34.234 37.002 32.914L36.984 32.302L37.002 31.708C37.074 30.412 37.476 29.38 38.208 28.612C38.94 27.844 39.918 27.46 41.142 27.46C42.462 27.46 43.482 27.88 44.202 28.72C44.934 29.56 45.3 30.7 45.3 32.14V32.464C45.3 32.584 45.258 32.686 45.174 32.77C45.102 32.842 45.006 32.878 44.886 32.878H38.64V33.04C38.676 33.82 38.916 34.486 39.36 35.038C39.804 35.59 40.392 35.866 41.124 35.866C41.688 35.866 42.144 35.758 42.492 35.542C42.852 35.314 43.122 35.08 43.302 34.84C43.41 34.696 43.494 34.612 43.554 34.588C43.614 34.552 43.716 34.534 43.86 34.534H44.652C44.76 34.534 44.85 34.564 44.922 34.624C45.006 34.684 45.048 34.762 45.048 34.858C45.048 35.122 44.886 35.44 44.562 35.812C44.238 36.184 43.776 36.508 43.176 36.784C42.588 37.048 41.91 37.18 41.142 37.18ZM43.662 31.654V31.6C43.662 30.76 43.434 30.076 42.978 29.548C42.522 29.02 41.91 28.756 41.142 28.756C40.362 28.756 39.75 29.02 39.306 29.548C38.862 30.076 38.64 30.76 38.64 31.6V31.654H43.662ZM49.7266 37C49.5586 37 49.4326 36.964 49.3486 36.892C49.2646 36.82 49.1986 36.706 49.1506 36.55L46.5946 28.198L46.5586 28.018C46.5586 27.91 46.5946 27.82 46.6666 27.748C46.7386 27.676 46.8286 27.64 46.9366 27.64H47.6746C47.7946 27.64 47.8906 27.676 47.9626 27.748C48.0466 27.808 48.0946 27.868 48.1066 27.928L50.1406 34.804L52.3006 28.018C52.3246 27.922 52.3786 27.838 52.4626 27.766C52.5466 27.682 52.6606 27.64 52.8046 27.64H53.3806C53.5246 27.64 53.6386 27.682 53.7226 27.766C53.8066 27.838 53.8606 27.922 53.8846 28.018L56.0446 34.804L58.0786 27.928C58.0906 27.868 58.1326 27.808 58.2046 27.748C58.2886 27.676 58.3906 27.64 58.5106 27.64H59.2486C59.3566 27.64 59.4466 27.676 59.5186 27.748C59.5906 27.82 59.6266 27.91 59.6266 28.018L59.5906 28.198L57.0346 36.55C56.9866 36.706 56.9206 36.82 56.8366 36.892C56.7526 36.964 56.6266 37 56.4586 37H55.8106C55.4986 37 55.2946 36.85 55.1986 36.55L53.0926 30.034L50.9866 36.55C50.8906 36.85 50.6866 37 50.3746 37H49.7266ZM68.2389 37.18C67.6509 37.18 67.1049 37.06 66.6009 36.82C66.1089 36.58 65.7129 36.256 65.4129 35.848C65.1249 35.428 64.9809 34.966 64.9809 34.462C64.9809 33.67 65.3049 33.022 65.9529 32.518C66.6009 32.014 67.4829 31.678 68.5989 31.51L71.2989 31.132V30.61C71.2989 29.374 70.5849 28.756 69.1569 28.756C68.6049 28.756 68.1609 28.87 67.8249 29.098C67.4889 29.314 67.2429 29.572 67.0869 29.872C67.0389 29.992 66.9849 30.076 66.9249 30.124C66.8769 30.16 66.8049 30.178 66.7089 30.178H66.0069C65.8989 30.178 65.8029 30.142 65.7189 30.07C65.6469 29.986 65.6109 29.89 65.6109 29.782C65.6109 29.506 65.7369 29.188 65.9889 28.828C66.2529 28.456 66.6549 28.138 67.1949 27.874C67.7349 27.598 68.3949 27.46 69.1749 27.46C70.5189 27.46 71.4789 27.772 72.0549 28.396C72.6429 29.02 72.9369 29.8 72.9369 30.736V36.586C72.9369 36.706 72.8949 36.808 72.8109 36.892C72.7389 36.964 72.6429 37 72.5229 37H71.7309C71.6109 37 71.5149 36.964 71.4429 36.892C71.3709 36.808 71.3349 36.706 71.3349 36.586V35.794C71.0709 36.19 70.6869 36.52 70.1829 36.784C69.6789 37.048 69.0309 37.18 68.2389 37.18ZM68.5989 35.866C69.3909 35.866 70.0389 35.608 70.5429 35.092C71.0469 34.576 71.2989 33.826 71.2989 32.842V32.338L69.1929 32.644C68.3289 32.764 67.6749 32.968 67.2309 33.256C66.7869 33.544 66.5649 33.904 66.5649 34.336C66.5649 34.828 66.7629 35.206 67.1589 35.47C67.5669 35.734 68.0469 35.866 68.5989 35.866ZM75.9754 37C75.8554 37 75.7534 36.964 75.6694 36.892C75.5974 36.808 75.5614 36.706 75.5614 36.586V24.634C75.5614 24.502 75.5974 24.4 75.6694 24.328C75.7534 24.256 75.8554 24.22 75.9754 24.22H76.7674C76.8874 24.22 76.9834 24.262 77.0554 24.346C77.1394 24.418 77.1814 24.514 77.1814 24.634V36.586C77.1814 36.706 77.1394 36.808 77.0554 36.892C76.9834 36.964 76.8874 37 76.7674 37H75.9754ZM80.3172 37C80.1972 37 80.0952 36.964 80.0112 36.892C79.9392 36.808 79.9032 36.706 79.9032 36.586V24.634C79.9032 24.502 79.9392 24.4 80.0112 24.328C80.0952 24.256 80.1972 24.22 80.3172 24.22H81.1092C81.2292 24.22 81.3252 24.262 81.3972 24.346C81.4812 24.418 81.5232 24.514 81.5232 24.634V36.586C81.5232 36.706 81.4812 36.808 81.3972 36.892C81.3252 36.964 81.2292 37 81.1092 37H80.3172ZM91.8699 37C90.0099 37 89.0799 35.95 89.0799 33.85V29.026H87.6579C87.5379 29.026 87.4419 28.99 87.3699 28.918C87.2979 28.846 87.2619 28.75 87.2619 28.63V28.054C87.2619 27.934 87.2979 27.838 87.3699 27.766C87.4419 27.682 87.5379 27.64 87.6579 27.64H89.0799V24.634C89.0799 24.514 89.1159 24.418 89.1879 24.346C89.2599 24.262 89.3559 24.22 89.4759 24.22H90.2679C90.3879 24.22 90.4839 24.262 90.5559 24.346C90.6399 24.418 90.6819 24.514 90.6819 24.634V27.64H92.9139C93.0339 27.64 93.1299 27.682 93.2019 27.766C93.2859 27.838 93.3279 27.934 93.3279 28.054V28.63C93.3279 28.75 93.2859 28.846 93.2019 28.918C93.1299 28.99 93.0339 29.026 92.9139 29.026H90.6819V33.724C90.6819 34.336 90.7779 34.798 90.9699 35.11C91.1739 35.422 91.5159 35.578 91.9959 35.578H93.0939C93.2139 35.578 93.3099 35.62 93.3819 35.704C93.4539 35.776 93.4899 35.872 93.4899 35.992V36.586C93.4899 36.706 93.4539 36.808 93.3819 36.892C93.3099 36.964 93.2139 37 93.0939 37H91.8699ZM95.6624 37C95.5424 37 95.4404 36.964 95.3564 36.892C95.2844 36.808 95.2484 36.706 95.2484 36.586V28.072C95.2484 27.952 95.2844 27.85 95.3564 27.766C95.4404 27.682 95.5424 27.64 95.6624 27.64H96.4184C96.5504 27.64 96.6524 27.682 96.7244 27.766C96.8084 27.838 96.8504 27.94 96.8504 28.072V28.864C97.3424 28.048 98.1764 27.64 99.3524 27.64H100.054C100.186 27.64 100.288 27.676 100.36 27.748C100.432 27.82 100.468 27.922 100.468 28.054V28.72C100.468 28.84 100.432 28.942 100.36 29.026C100.288 29.098 100.186 29.134 100.054 29.134H99.0284C98.3684 29.134 97.8464 29.326 97.4624 29.71C97.0904 30.094 96.9044 30.616 96.9044 31.276V36.586C96.9044 36.706 96.8624 36.808 96.7784 36.892C96.6944 36.964 96.5924 37 96.4724 37H95.6624ZM102.286 25.876C102.166 25.876 102.064 25.84 101.98 25.768C101.908 25.684 101.872 25.582 101.872 25.462V24.526C101.872 24.406 101.908 24.304 101.98 24.22C102.064 24.136 102.166 24.094 102.286 24.094H103.348C103.468 24.094 103.57 24.136 103.654 24.22C103.738 24.304 103.78 24.406 103.78 24.526V25.462C103.78 25.582 103.738 25.684 103.654 25.768C103.57 25.84 103.468 25.876 103.348 25.876H102.286ZM102.43 37C102.31 37 102.208 36.964 102.124 36.892C102.052 36.808 102.016 36.706 102.016 36.586V28.054C102.016 27.934 102.052 27.838 102.124 27.766C102.208 27.682 102.31 27.64 102.43 27.64H103.222C103.342 27.64 103.438 27.682 103.51 27.766C103.594 27.838 103.636 27.934 103.636 28.054V36.586C103.636 36.706 103.594 36.808 103.51 36.892C103.438 36.964 103.342 37 103.222 37H102.43ZM106.772 40.42C106.652 40.42 106.55 40.384 106.466 40.312C106.394 40.24 106.358 40.138 106.358 40.006V28.054C106.358 27.922 106.394 27.82 106.466 27.748C106.55 27.676 106.652 27.64 106.772 27.64H107.528C107.66 27.64 107.762 27.676 107.834 27.748C107.906 27.82 107.942 27.922 107.942 28.054V28.846C108.638 27.922 109.628 27.46 110.912 27.46C112.172 27.46 113.114 27.862 113.738 28.666C114.374 29.458 114.71 30.472 114.746 31.708C114.758 31.84 114.764 32.044 114.764 32.32C114.764 32.596 114.758 32.8 114.746 32.932C114.71 34.156 114.374 35.17 113.738 35.974C113.114 36.778 112.172 37.18 110.912 37.18C109.628 37.18 108.656 36.724 107.996 35.812V40.006C107.996 40.126 107.954 40.222 107.87 40.294C107.798 40.378 107.702 40.42 107.582 40.42H106.772ZM110.57 35.776C111.434 35.776 112.064 35.506 112.46 34.966C112.856 34.426 113.072 33.718 113.108 32.842C113.12 32.722 113.126 32.548 113.126 32.32C113.126 30.016 112.274 28.864 110.57 28.864C109.73 28.864 109.094 29.146 108.662 29.71C108.242 30.262 108.02 30.916 107.996 31.672C107.984 31.804 107.978 32.038 107.978 32.374C107.978 32.71 107.984 32.944 107.996 33.076C108.02 33.808 108.248 34.444 108.68 34.984C109.124 35.512 109.754 35.776 110.57 35.776ZM121.889 40.42C121.769 40.42 121.667 40.384 121.583 40.312C121.511 40.24 121.475 40.138 121.475 40.006V28.054C121.475 27.922 121.511 27.82 121.583 27.748C121.667 27.676 121.769 27.64 121.889 27.64H122.645C122.777 27.64 122.879 27.676 122.951 27.748C123.023 27.82 123.059 27.922 123.059 28.054V28.846C123.755 27.922 124.745 27.46 126.029 27.46C127.289 27.46 128.231 27.862 128.855 28.666C129.491 29.458 129.827 30.472 129.863 31.708C129.875 31.84 129.881 32.044 129.881 32.32C129.881 32.596 129.875 32.8 129.863 32.932C129.827 34.156 129.491 35.17 128.855 35.974C128.231 36.778 127.289 37.18 126.029 37.18C124.745 37.18 123.773 36.724 123.113 35.812V40.006C123.113 40.126 123.071 40.222 122.987 40.294C122.915 40.378 122.819 40.42 122.699 40.42H121.889ZM125.687 35.776C126.551 35.776 127.181 35.506 127.577 34.966C127.973 34.426 128.189 33.718 128.225 32.842C128.237 32.722 128.243 32.548 128.243 32.32C128.243 30.016 127.391 28.864 125.687 28.864C124.847 28.864 124.211 29.146 123.779 29.71C123.359 30.262 123.137 30.916 123.113 31.672C123.101 31.804 123.095 32.038 123.095 32.374C123.095 32.71 123.101 32.944 123.113 33.076C123.137 33.808 123.365 34.444 123.797 34.984C124.241 35.512 124.871 35.776 125.687 35.776ZM132.577 37C132.457 37 132.355 36.964 132.271 36.892C132.199 36.808 132.163 36.706 132.163 36.586V24.634C132.163 24.502 132.199 24.4 132.271 24.328C132.355 24.256 132.457 24.22 132.577 24.22H133.369C133.489 24.22 133.585 24.262 133.657 24.346C133.741 24.418 133.783 24.514 133.783 24.634V36.586C133.783 36.706 133.741 36.808 133.657 36.892C133.585 36.964 133.489 37 133.369 37H132.577ZM139.079 37.18C138.491 37.18 137.945 37.06 137.441 36.82C136.949 36.58 136.553 36.256 136.253 35.848C135.965 35.428 135.821 34.966 135.821 34.462C135.821 33.67 136.145 33.022 136.793 32.518C137.441 32.014 138.323 31.678 139.439 31.51L142.139 31.132V30.61C142.139 29.374 141.425 28.756 139.997 28.756C139.445 28.756 139.001 28.87 138.665 29.098C138.329 29.314 138.083 29.572 137.927 29.872C137.879 29.992 137.825 30.076 137.765 30.124C137.717 30.16 137.645 30.178 137.549 30.178H136.847C136.739 30.178 136.643 30.142 136.559 30.07C136.487 29.986 136.451 29.89 136.451 29.782C136.451 29.506 136.577 29.188 136.829 28.828C137.093 28.456 137.495 28.138 138.035 27.874C138.575 27.598 139.235 27.46 140.015 27.46C141.359 27.46 142.319 27.772 142.895 28.396C143.483 29.02 143.777 29.8 143.777 30.736V36.586C143.777 36.706 143.735 36.808 143.651 36.892C143.579 36.964 143.483 37 143.363 37H142.571C142.451 37 142.355 36.964 142.283 36.892C142.211 36.808 142.175 36.706 142.175 36.586V35.794C141.911 36.19 141.527 36.52 141.023 36.784C140.519 37.048 139.871 37.18 139.079 37.18ZM139.439 35.866C140.231 35.866 140.879 35.608 141.383 35.092C141.887 34.576 142.139 33.826 142.139 32.842V32.338L140.033 32.644C139.169 32.764 138.515 32.968 138.071 33.256C137.627 33.544 137.405 33.904 137.405 34.336C137.405 34.828 137.603 35.206 137.999 35.47C138.407 35.734 138.887 35.866 139.439 35.866ZM146.797 37C146.677 37 146.575 36.964 146.491 36.892C146.419 36.808 146.383 36.706 146.383 36.586V28.054C146.383 27.934 146.419 27.838 146.491 27.766C146.575 27.682 146.677 27.64 146.797 27.64H147.571C147.703 27.64 147.805 27.676 147.877 27.748C147.949 27.82 147.985 27.922 147.985 28.054V28.846C148.345 28.402 148.759 28.06 149.227 27.82C149.707 27.58 150.301 27.46 151.009 27.46C152.161 27.46 153.055 27.832 153.691 28.576C154.327 29.308 154.645 30.28 154.645 31.492V36.586C154.645 36.706 154.603 36.808 154.519 36.892C154.447 36.964 154.351 37 154.231 37H153.403C153.283 37 153.181 36.964 153.097 36.892C153.025 36.808 152.989 36.706 152.989 36.586V31.6C152.989 30.736 152.779 30.064 152.359 29.584C151.939 29.104 151.339 28.864 150.559 28.864C149.791 28.864 149.179 29.11 148.723 29.602C148.267 30.082 148.039 30.748 148.039 31.6V36.586C148.039 36.706 147.997 36.808 147.913 36.892C147.841 36.964 147.745 37 147.625 37H146.797ZM160.45 37.18C159.622 37.18 158.92 37.048 158.344 36.784C157.78 36.508 157.36 36.196 157.084 35.848C156.808 35.5 156.67 35.212 156.67 34.984C156.67 34.864 156.712 34.774 156.796 34.714C156.88 34.642 156.97 34.606 157.066 34.606H157.822C157.894 34.606 157.948 34.618 157.984 34.642C158.032 34.666 158.092 34.72 158.164 34.804C158.44 35.14 158.746 35.404 159.082 35.596C159.43 35.788 159.892 35.884 160.468 35.884C161.116 35.884 161.632 35.764 162.016 35.524C162.412 35.284 162.61 34.936 162.61 34.48C162.61 34.18 162.526 33.94 162.358 33.76C162.19 33.58 161.908 33.418 161.512 33.274C161.128 33.13 160.552 32.974 159.784 32.806C158.74 32.578 158.002 32.248 157.57 31.816C157.138 31.384 156.922 30.826 156.922 30.142C156.922 29.698 157.054 29.272 157.318 28.864C157.582 28.444 157.972 28.108 158.488 27.856C159.016 27.592 159.64 27.46 160.36 27.46C161.116 27.46 161.758 27.586 162.286 27.838C162.826 28.09 163.228 28.384 163.492 28.72C163.768 29.056 163.906 29.338 163.906 29.566C163.906 29.674 163.864 29.764 163.78 29.836C163.708 29.908 163.618 29.944 163.51 29.944H162.826C162.658 29.944 162.538 29.878 162.466 29.746C162.262 29.518 162.088 29.344 161.944 29.224C161.812 29.092 161.614 28.984 161.35 28.9C161.086 28.804 160.756 28.756 160.36 28.756C159.772 28.756 159.322 28.882 159.01 29.134C158.698 29.374 158.542 29.698 158.542 30.106C158.542 30.358 158.608 30.574 158.74 30.754C158.872 30.922 159.124 31.084 159.496 31.24C159.868 31.384 160.42 31.534 161.152 31.69C162.292 31.93 163.096 32.272 163.564 32.716C164.044 33.16 164.284 33.73 164.284 34.426C164.284 34.942 164.134 35.41 163.834 35.83C163.546 36.25 163.108 36.58 162.52 36.82C161.944 37.06 161.254 37.18 160.45 37.18Z" fill="white"/>
</svg>
