<svg width="81" height="24" viewBox="0 0 81 24" fill="none" xmlns="http://www.w3.org/2000/svg">
<path d="M20.28 16.1201C20.472 16.1201 20.632 16.1841 20.76 16.3121C20.9093 16.4401 20.9733 16.6001 20.952 16.7921C20.9093 17.8801 20.5467 18.9255 19.864 19.9281C19.1813 20.9308 18.168 21.7521 16.824 22.3921C15.5013 23.0108 13.8907 23.3201 11.992 23.3201C9.26133 23.3201 7.16 22.6161 5.688 21.2081C4.216 19.7788 3.384 17.8161 3.192 15.3201H1.112C0.898667 15.3201 0.717333 15.2561 0.568 15.1281C0.44 14.9788 0.376 14.7975 0.376 14.5841V13.5601C0.376 13.3468 0.44 13.1761 0.568 13.0481C0.717333 12.8988 0.898667 12.8241 1.112 12.8241H3.16V10.8081H1.112C0.898667 10.8081 0.717333 10.7441 0.568 10.6161C0.44 10.4668 0.376 10.2855 0.376 10.0721V9.01612C0.376 8.80279 0.44 8.63212 0.568 8.50412C0.717333 8.35479 0.898667 8.28012 1.112 8.28012H3.192C3.40533 5.78412 4.248 3.83212 5.72 2.42412C7.192 0.994788 9.28267 0.280121 11.992 0.280121C13.8907 0.280121 15.5013 0.600121 16.824 1.24012C18.168 1.85879 19.1813 2.66945 19.864 3.67212C20.5467 4.65345 20.9093 5.69879 20.952 6.80812V6.87212C20.952 7.04279 20.8773 7.19212 20.728 7.32012C20.6 7.42679 20.4507 7.48012 20.28 7.48012H18.648C18.4347 7.48012 18.264 7.42679 18.136 7.32012C18.0293 7.21345 17.9333 7.02145 17.848 6.74412C17.4853 5.37879 16.8133 4.39745 15.832 3.80012C14.8507 3.20279 13.5707 2.90412 11.992 2.90412C8.536 2.90412 6.63733 4.69612 6.296 8.28012H12.696C12.9093 8.28012 13.08 8.35479 13.208 8.50412C13.3573 8.63212 13.432 8.80279 13.432 9.01612V10.0721C13.432 10.2855 13.3573 10.4668 13.208 10.6161C13.08 10.7441 12.9093 10.8081 12.696 10.8081H6.232V12.8241H12.696C12.9307 12.8241 13.112 12.8881 13.24 13.0161C13.368 13.1441 13.432 13.3255 13.432 13.5601V14.5841C13.432 14.7975 13.368 14.9788 13.24 15.1281C13.112 15.2561 12.9307 15.3201 12.696 15.3201H6.296C6.63733 18.8828 8.536 20.6641 11.992 20.6641C13.5707 20.6641 14.8507 20.3655 15.832 19.7681C16.8133 19.1708 17.4853 18.2001 17.848 16.8561C17.9333 16.5788 18.0293 16.3868 18.136 16.2801C18.264 16.1735 18.4347 16.1201 18.648 16.1201H20.28ZM32.062 23.3201C30.462 23.3201 29.0753 23.0321 27.902 22.4561C26.7287 21.8801 25.8327 21.1335 25.214 20.2161C24.5953 19.2775 24.2647 18.2748 24.222 17.2081V17.1441C24.222 16.9735 24.286 16.8348 24.414 16.7281C24.542 16.6215 24.6913 16.5681 24.862 16.5681H26.43C26.878 16.5681 27.166 16.8028 27.294 17.2721C27.614 18.4241 28.2007 19.2881 29.054 19.8641C29.9287 20.4188 30.9313 20.6961 32.062 20.6961C33.5127 20.6961 34.718 20.2588 35.678 19.3841C36.638 18.4881 37.118 17.2615 37.118 15.7041C37.118 14.2748 36.638 13.1441 35.678 12.3121C34.718 11.4588 33.5127 11.0321 32.062 11.0321C31.294 11.0321 30.6753 11.1281 30.206 11.3201C29.7367 11.5121 29.2567 11.7895 28.766 12.1521C28.4887 12.3655 28.254 12.5255 28.062 12.6321C27.8913 12.7175 27.6993 12.7601 27.486 12.7601H25.95C25.758 12.7601 25.5873 12.6961 25.438 12.5681C25.2887 12.4188 25.2247 12.2481 25.246 12.0561L26.238 1.40012C26.302 0.866788 26.5687 0.600121 27.038 0.600121H38.11C38.3447 0.600121 38.526 0.664121 38.654 0.792122C38.782 0.920122 38.846 1.10145 38.846 1.33612V2.52012C38.846 2.73345 38.7713 2.90412 38.622 3.03212C38.494 3.16012 38.3233 3.22412 38.11 3.22412H28.894L28.318 9.65612C29.342 8.93079 30.718 8.56812 32.446 8.56812C33.8753 8.56812 35.1767 8.85612 36.35 9.43212C37.5233 9.98679 38.4513 10.8081 39.134 11.8961C39.838 12.9841 40.19 14.2748 40.19 15.7681C40.19 17.3468 39.838 18.7121 39.134 19.8641C38.4513 20.9948 37.4913 21.8588 36.254 22.4561C35.038 23.0321 33.6407 23.3201 32.062 23.3201ZM51.7995 23.3201C49.0475 23.3201 47.0315 22.5201 45.7515 20.9201C44.4928 19.2988 43.8208 17.1868 43.7355 14.5841L43.7035 11.8321L43.7355 8.98412C43.7995 6.40279 44.4715 4.31212 45.7515 2.71212C47.0528 1.09079 49.0688 0.280121 51.7995 0.280121C54.5515 0.280121 56.5675 1.09079 57.8475 2.71212C59.1488 4.31212 59.8315 6.40279 59.8955 8.98412C59.9168 9.58145 59.9275 10.5308 59.9275 11.8321C59.9275 13.0908 59.9168 14.0081 59.8955 14.5841C59.8102 17.1868 59.1275 19.2988 57.8475 20.9201C56.5888 22.5201 54.5728 23.3201 51.7995 23.3201ZM51.7995 20.6641C53.4422 20.6641 54.6795 20.1201 55.5115 19.0321C56.3435 17.9441 56.7808 16.4081 56.8235 14.4241C56.8448 13.8055 56.8555 12.9201 56.8555 11.7681C56.8555 10.5948 56.8448 9.72012 56.8235 9.14412C56.7808 7.18145 56.3328 5.65612 55.4795 4.56812C54.6475 3.45879 53.4208 2.90412 51.7995 2.90412C50.1782 2.90412 48.9515 3.45879 48.1195 4.56812C47.2875 5.65612 46.8502 7.18145 46.8075 9.14412L46.7755 11.7681L46.8075 14.4241C46.8502 16.4081 47.2875 17.9441 48.1195 19.0321C48.9515 20.1201 50.1782 20.6641 51.7995 20.6641ZM72.0495 23.3201C69.2975 23.3201 67.2815 22.5201 66.0015 20.9201C64.7428 19.2988 64.0708 17.1868 63.9855 14.5841L63.9535 11.8321L63.9855 8.98412C64.0495 6.40279 64.7215 4.31212 66.0015 2.71212C67.3028 1.09079 69.3188 0.280121 72.0495 0.280121C74.8015 0.280121 76.8175 1.09079 78.0975 2.71212C79.3988 4.31212 80.0815 6.40279 80.1455 8.98412C80.1668 9.58145 80.1775 10.5308 80.1775 11.8321C80.1775 13.0908 80.1668 14.0081 80.1455 14.5841C80.0602 17.1868 79.3775 19.2988 78.0975 20.9201C76.8388 22.5201 74.8228 23.3201 72.0495 23.3201ZM72.0495 20.6641C73.6922 20.6641 74.9295 20.1201 75.7615 19.0321C76.5935 17.9441 77.0308 16.4081 77.0735 14.4241C77.0948 13.8055 77.1055 12.9201 77.1055 11.7681C77.1055 10.5948 77.0948 9.72012 77.0735 9.14412C77.0308 7.18145 76.5828 5.65612 75.7295 4.56812C74.8975 3.45879 73.6708 2.90412 72.0495 2.90412C70.4282 2.90412 69.2015 3.45879 68.3695 4.56812C67.5375 5.65612 67.1002 7.18145 67.0575 9.14412L67.0255 11.7681L67.0575 14.4241C67.1002 16.4081 67.5375 17.9441 68.3695 19.0321C69.2015 20.1201 70.4282 20.6641 72.0495 20.6641Z" fill="#FF7757"/>
</svg>
